<svg id="Capa_1" enable-background="new 0 0 512.002 512.002" height="512" viewBox="0 0 512.002 512.002" width="512" xmlns="http://www.w3.org/2000/svg"><g id="XMLID_782_"><g fill="#c68a65"><path id="XMLID_805_" d="m387.569 479.26c50.622-38.756 79.291-103.063 69.402-170.621-2.519-17.208-7.389-33.487-14.214-48.581l9.571-16.179c4.582-7.746 2.018-17.74-5.729-22.323-12.677-7.499-29.034-3.302-36.533 9.375-4.582 7.746-2.018 17.74 5.729 22.323l17.281 10.222c2.032 52.839-21.581 101.921-60.74 133.675z"/><path id="XMLID_804_" d="m124.433 479.26c-50.622-38.755-79.291-103.062-69.402-170.62 2.519-17.208 7.389-33.487 14.214-48.581l-9.571-16.179c-4.582-7.746-2.018-17.74 5.729-22.323 12.677-7.499 29.034-3.302 36.533 9.375 4.582 7.746 2.018 17.74-5.729 22.323l-17.281 10.222c-2.032 52.839 21.581 101.921 60.74 133.675z"/><path id="XMLID_801_" d="m305.155 275.416c1.28-17.564 15.936-31.416 33.827-31.416 18.732 0 33.918 15.186 33.918 33.918 0 16.138-11.271 29.644-26.37 33.075z"/><path id="XMLID_800_" d="m206.847 275.416c-1.28-17.564-15.936-31.416-33.827-31.416-18.732 0-33.918 15.186-33.918 33.918 0 16.138 11.271 29.644 26.37 33.075z"/></g><path id="XMLID_799_" d="m391.767 501.896-27.392-147.638c-9.69-52.229-55.254-90.117-108.374-90.117-53.12 0-98.684 37.888-108.374 90.117l-27.411 147.742z" fill="#d1a184"/><path id="XMLID_972_" d="m425.374 178h-339c-12.426 0-22.5-10.074-22.5-22.5v-123c0-12.426 10.074-22.5 22.5-22.5h339c12.426 0 22.5 10.074 22.5 22.5v123c0 12.426-10.074 22.5-22.5 22.5z" fill="#ffda8f"/><g id="XMLID_792_"><path id="XMLID_819_" d="m259.271 20c2.63 0 5.21-1.07 7.07-2.93 1.87-1.86 2.93-4.44 2.93-7.07s-1.06-5.21-2.93-7.07c-1.86-1.86-4.44-2.93-7.07-2.93s-5.21 1.07-7.07 2.93-2.93 4.44-2.93 7.07 1.07 5.21 2.93 7.07 4.44 2.93 7.07 2.93z"/><path id="XMLID_820_" d="m179.107 144c5.523 0 10-4.477 10-10v-80c0-5.523-4.477-10-10-10s-10 4.477-10 10v28.628h-35.361v-28.628c0-5.523-4.477-10-10-10s-10 4.477-10 10v80c0 5.523 4.477 10 10 10s10-4.477 10-10v-31.372h35.361v31.372c0 5.523 4.477 10 10 10z"/><path id="XMLID_823_" d="m323.798 132.7c0 .673.069 1.33.196 1.966.162 2.421 1.189 4.711 2.922 6.431 1.874 1.86 4.406 2.903 7.045 2.903h.038c.685-.002 16.84-.065 23.294-.178 24.029-.419 41.469-21.373 41.469-49.822 0-29.907-17.001-50-42.306-50h-22.658c-2.655 0-5.202 1.056-7.078 2.936s-2.927 4.428-2.922 7.083v.061.003zm32.658-68.7c16.446 0 22.306 15.497 22.306 30 0 14.656-6.746 29.562-21.818 29.825-2.99.052-8.269.094-13.018.124-.03-9.468-.093-50.116-.11-59.949z"/><path id="XMLID_824_" d="m209.107 94c0 27.57 22.43 50 50 50 26.218 0 44.53-20.561 44.53-50 0-5.523-4.477-10-10-10h-23.932c-5.523 0-10 4.477-10 10s4.477 10 10 10h12.775c-2.552 10.601-9.565 20-23.374 20-16.542 0-30-13.458-30-30s13.458-30 30-30c6.013 0 11.811 1.77 16.766 5.118 4.576 3.092 10.793 1.888 13.884-2.688 3.092-4.576 1.888-10.792-2.688-13.884-8.273-5.591-17.942-8.546-27.961-8.546-27.57 0-50 22.43-50 50z"/><path id="XMLID_826_" d="m285.238 413.034c-2.141 2.12-4.98 3.288-7.995 3.288-4.509 0-8.401-2.647-10.235-6.463.494-.509.965-1.043 1.388-1.623l8.654-11.842c3.462-4.737 3.963-10.93 1.307-16.162-2.657-5.232-7.953-8.483-13.821-8.483h-17.308c-5.868 0-11.164 3.25-13.821 8.483-2.656 5.232-2.156 11.426 1.307 16.162l8.654 11.841c.424.58.894 1.114 1.388 1.623-1.834 3.816-5.726 6.463-10.235 6.463-3.014 0-5.854-1.168-7.995-3.288-3.924-3.887-10.256-3.856-14.142.068-3.887 3.924-3.856 10.255.068 14.142 5.911 5.854 13.748 9.078 22.068 9.078.596 0 1.187-.02 1.775-.053v4.971c0 5.523 4.477 10 10 10 4.436 0 8.191-2.89 9.5-6.888 1.309 3.998 5.064 6.888 9.5 6.888 5.523 0 10-4.477 10-10v-4.984c.645.04 1.292.066 1.947.066 8.32 0 16.157-3.224 22.068-9.078 3.924-3.886 3.955-10.218.068-14.142-3.884-3.922-10.216-3.954-14.14-.067z"/><path id="XMLID_828_" d="m219.491 351.75c2.63 0 5.21-1.07 7.07-2.93s2.93-4.44 2.93-7.07-1.07-5.21-2.93-7.07-4.44-2.93-7.07-2.93c-2.64 0-5.21 1.07-7.07 2.93s-2.93 4.44-2.93 7.07 1.07 5.21 2.93 7.07 4.44 2.93 7.07 2.93z"/><path id="XMLID_829_" d="m299.341 348.82c1.87-1.86 2.93-4.44 2.93-7.07s-1.06-5.21-2.93-7.07c-1.86-1.86-4.43-2.93-7.07-2.93-2.63 0-5.21 1.07-7.07 2.93s-2.93 4.44-2.93 7.07 1.07 5.21 2.93 7.07c1.87 1.86 4.44 2.93 7.07 2.93 2.64 0 5.21-1.07 7.07-2.93z"/><path id="XMLID_838_" d="m466.866 307.191c-2.343-16.006-6.677-31.603-12.9-46.439l6.968-11.78c7.383-12.479 3.236-28.639-9.244-36.021-4.26-2.52-8.827-4.07-13.447-4.729v-22.885c11.536-4.995 19.63-16.487 19.63-29.837v-123c0-17.92-14.58-32.5-32.5-32.5h-121.1c-5.523 0-10 4.477-10 10s4.477 10 10 10h121.101c6.893 0 12.5 5.607 12.5 12.5v123c0 6.893-5.607 12.5-12.5 12.5h-339c-6.893 0-12.5-5.607-12.5-12.5v-123c0-6.893 5.607-12.5 12.5-12.5h127.9c5.523 0 10-4.477 10-10s-4.477-10-10-10h-127.9c-17.92 0-32.5 14.58-32.5 32.5v123c0 13.642 8.453 25.339 20.392 30.151v22.501c-4.793.615-9.539 2.187-13.955 4.798-12.479 7.383-16.626 23.542-9.244 36.021l6.969 11.78c-6.223 14.836-10.557 30.433-12.9 46.439-9.765 66.709 16.361 133.624 68.368 176.165l-3.121 16.819c-1.008 5.43 2.578 10.649 8.008 11.656.617.115 1.23.17 1.835.17 4.725 0 8.928-3.364 9.821-8.178l27.411-147.742c8.809-47.48 50.252-81.941 98.542-81.941s89.733 34.461 98.542 81.941l27.392 147.638c1.008 5.43 6.224 9.018 11.656 8.008 5.43-1.007 9.016-6.226 8.008-11.656l-3.101-16.716c52.008-42.539 78.133-109.454 68.369-176.163zm-22.466-73.172c.418 1.629.177 3.323-.68 4.771l-8.487 14.347-14.347-8.487c-2.988-1.768-3.981-5.637-2.213-8.625 3.108-5.255 8.671-8.179 14.375-8.179 2.883 0 5.803.748 8.459 2.319 1.448.856 2.475 2.224 2.893 3.854zm-376.798 0c.418-1.629 1.445-2.998 2.893-3.854 2.657-1.572 5.576-2.319 8.459-2.319 5.704 0 11.267 2.924 14.375 8.179 1.768 2.988.775 6.857-2.213 8.625l-14.348 8.487-8.488-14.348c-.855-1.448-1.096-3.142-.678-4.77zm-2.677 76.069c1.113-7.606 2.728-15.107 4.831-22.458 4.589 43.508 25.666 84.381 59.02 113.414l-11.033 59.464c-40.946-38.202-61.019-94.391-52.818-150.42zm97.238-10.87c-7.814-4.023-13.06-12.236-13.06-21.3 0-13.188 10.729-23.918 23.918-23.918 10.451 0 19.499 6.833 22.689 16.355-12.853 7.46-24.239 17.254-33.547 28.863zm51.68-37.448c-6.492-16.294-22.478-27.77-40.822-27.77-24.216 0-43.918 19.702-43.918 43.918 0 16.094 8.536 30.343 21.826 38.009-6.197 11.135-10.703 23.406-13.134 36.507l-4.686 25.254c-28.262-28.811-44.409-67.994-44.301-108.437l12.491-7.388c12.479-7.383 16.625-23.542 9.244-36.021-3.95-6.677-9.705-11.636-16.277-14.64v-23.202h323.978v22.977c-6.783 2.978-12.733 8.017-16.784 14.865-7.382 12.479-3.235 28.638 9.244 36.021l12.49 7.388c.108 40.444-16.039 79.626-44.3 108.437l-4.685-25.254c-2.431-13.101-6.937-25.372-13.134-36.507 13.29-7.666 21.826-21.914 21.826-38.009 0-24.216-19.702-43.918-43.918-43.918-18.344 0-34.331 11.476-40.822 27.77-13.18-4.94-27.401-7.629-42.158-7.629-14.759.001-28.981 2.689-42.16 7.629zm102.449 8.585c3.19-9.522 12.238-16.355 22.689-16.355 13.188 0 23.918 10.729 23.918 23.918 0 9.064-5.247 17.277-13.06 21.3-9.308-11.609-20.694-21.403-33.547-28.863zm77.967 190.153-11.032-59.464c33.354-29.033 54.431-69.906 59.02-113.414 2.103 7.351 3.717 14.852 4.831 22.458 8.2 56.029-11.873 112.217-52.819 150.42z"/></g></g></svg>